<svg id="calendar_1_" data-name="calendar (1)" xmlns="http://www.w3.org/2000/svg" width="20" height="20" viewBox="0 0 20 20">
  <g id="Group_50180" data-name="Group 50180" transform="translate(4.272)">
    <g id="Group_50179" data-name="Group 50179">
      <path id="Path_23737" data-name="Path 23737" d="M103.143,0a.743.743,0,0,0-.743.743V2.23h1.487V.743A.743.743,0,0,0,103.143,0Z" transform="translate(-102.4)" fill="#3b2a65"/>
    </g>
  </g>
  <g id="Group_50182" data-name="Group 50182" transform="translate(14.241)">
    <g id="Group_50181" data-name="Group 50181">
      <path id="Path_23738" data-name="Path 23738" d="M342.076,0a.743.743,0,0,0-.743.743V2.23h1.487V.743A.743.743,0,0,0,342.076,0Z" transform="translate(-341.333)" fill="#3b2a65"/>
    </g>
  </g>
  <g id="Group_50184" data-name="Group 50184" transform="translate(0 2.23)">
    <g id="Group_50183" data-name="Group 50183">
      <path id="Path_23739" data-name="Path 23739" d="M17.857,51.2H15.714v2.843a.714.714,0,0,1-1.429,0V51.2H5.714v2.843a.714.714,0,0,1-1.429,0V51.2H2.143A2.138,2.138,0,0,0,0,53.332V66.838A2.138,2.138,0,0,0,2.143,68.97H17.857A2.138,2.138,0,0,0,20,66.838V53.332A2.138,2.138,0,0,0,17.857,51.2Zm.714,15.638a.713.713,0,0,1-.714.711H2.143a.713.713,0,0,1-.714-.711V57.6H18.571Z" transform="translate(0 -51.2)" fill="#3b2a65"/>
    </g>
  </g>
  <g id="Group_50186" data-name="Group 50186" transform="translate(3.547 9.969)">
    <g id="Group_50185" data-name="Group 50185">
      <path id="Path_23740" data-name="Path 23740" d="M87.563,238.933H86.076a.743.743,0,1,0,0,1.487h1.487a.743.743,0,0,0,0-1.487Z" transform="translate(-85.333 -238.933)" fill="#5ddbfc"/>
    </g>
  </g>
  <g id="Group_50188" data-name="Group 50188" transform="translate(8.513 9.969)">
    <g id="Group_50187" data-name="Group 50187">
      <path id="Path_23741" data-name="Path 23741" d="M207.03,238.933h-1.487a.743.743,0,1,0,0,1.487h1.487a.743.743,0,0,0,0-1.487Z" transform="translate(-204.8 -238.933)" fill="#5ddbfc"/>
    </g>
  </g>
  <g id="Group_50190" data-name="Group 50190" transform="translate(13.48 9.969)">
    <g id="Group_50189" data-name="Group 50189">
      <path id="Path_23742" data-name="Path 23742" d="M326.5,238.933H325.01a.743.743,0,1,0,0,1.487H326.5a.743.743,0,0,0,0-1.487Z" transform="translate(-324.267 -238.933)" fill="#5ddbfc"/>
    </g>
  </g>
  <g id="Group_50192" data-name="Group 50192" transform="translate(3.547 12.817)">
    <g id="Group_50191" data-name="Group 50191">
      <path id="Path_23743" data-name="Path 23743" d="M87.563,307.2H86.076a.743.743,0,1,0,0,1.487h1.487a.743.743,0,1,0,0-1.487Z" transform="translate(-85.333 -307.2)" fill="#5ddbfc"/>
    </g>
  </g>
  <g id="Group_50194" data-name="Group 50194" transform="translate(8.513 12.817)">
    <g id="Group_50193" data-name="Group 50193">
      <path id="Path_23744" data-name="Path 23744" d="M207.03,307.2h-1.487a.743.743,0,1,0,0,1.487h1.487a.743.743,0,0,0,0-1.487Z" transform="translate(-204.8 -307.2)" fill="#5ddbfc"/>
    </g>
  </g>
  <g id="Group_50196" data-name="Group 50196" transform="translate(13.48 12.817)">
    <g id="Group_50195" data-name="Group 50195">
      <path id="Path_23745" data-name="Path 23745" d="M326.5,307.2H325.01a.743.743,0,1,0,0,1.487H326.5a.743.743,0,0,0,0-1.487Z" transform="translate(-324.267 -307.2)" fill="#5ddbfc"/>
    </g>
  </g>
  <g id="Group_50198" data-name="Group 50198" transform="translate(3.547 15.54)">
    <g id="Group_50197" data-name="Group 50197">
      <path id="Path_23746" data-name="Path 23746" d="M87.563,375.467H86.076a.743.743,0,1,0,0,1.487h1.487a.743.743,0,1,0,0-1.487Z" transform="translate(-85.333 -375.467)" fill="#5ddbfc"/>
    </g>
  </g>
  <g id="Group_50200" data-name="Group 50200" transform="translate(8.513 15.54)">
    <g id="Group_50199" data-name="Group 50199">
      <path id="Path_23747" data-name="Path 23747" d="M207.03,375.467h-1.487a.743.743,0,1,0,0,1.487h1.487a.743.743,0,0,0,0-1.487Z" transform="translate(-204.8 -375.467)" fill="#5ddbfc"/>
    </g>
  </g>
  <g id="Group_50202" data-name="Group 50202" transform="translate(13.48 15.54)">
    <g id="Group_50201" data-name="Group 50201">
      <path id="Path_23748" data-name="Path 23748" d="M326.5,375.467H325.01a.743.743,0,1,0,0,1.487H326.5a.743.743,0,0,0,0-1.487Z" transform="translate(-324.267 -375.467)" fill="#5ddbfc"/>
    </g>
  </g>
</svg>
