<svg xmlns="http://www.w3.org/2000/svg" width="20" height="13.333" viewBox="0 0 20 13.333">
  <g id="email" transform="translate(417 -266)">
    <g id="Group_50225" data-name="Group 50225" transform="translate(-417 266)">
      <g id="email_1_" data-name="email (1)" transform="translate(0 0)">
        <g id="Group_50227" data-name="Group 50227" transform="translate(0 0)">
          <g id="Group_50226" data-name="Group 50226">
            <path id="Path_23755" data-name="Path 23755" d="M17.917,85.333H2.083A2.086,2.086,0,0,0,0,87.416v9.167a2.086,2.086,0,0,0,2.083,2.083H17.917A2.086,2.086,0,0,0,20,96.583V87.416A2.086,2.086,0,0,0,17.917,85.333Zm1.25,11.25a1.252,1.252,0,0,1-1.25,1.25H2.083a1.252,1.252,0,0,1-1.25-1.25V87.416a1.252,1.252,0,0,1,1.25-1.25H17.917a1.252,1.252,0,0,1,1.25,1.25v9.167Z" transform="translate(0 -85.333)" fill="#3b2a65"/>
          </g>
        </g>
        <g id="Group_50229" data-name="Group 50229" transform="translate(1.665 1.664)">
          <g id="Group_50228" data-name="Group 50228">
            <path id="Path_23756" data-name="Path 23756" d="M59.268,128.181a.417.417,0,0,0-.579-.108l-6.836,4.67a1.5,1.5,0,0,1-1.695,0l-6.836-4.67a.416.416,0,1,0-.47.687l6.836,4.67a2.322,2.322,0,0,0,2.636,0l6.836-4.67A.415.415,0,0,0,59.268,128.181Z" transform="translate(-42.67 -128)" fill="#3b2a65"/>
          </g>
        </g>
        <g id="Group_50231" data-name="Group 50231" transform="translate(1.664 6.675)">
          <g id="Group_50230" data-name="Group 50230">
            <path id="Path_23757" data-name="Path 23757" d="M48.376,256.145a.418.418,0,0,0-.587-.053L42.8,260.253a.417.417,0,0,0,.533.64l4.993-4.161A.417.417,0,0,0,48.376,256.145Z" transform="translate(-42.646 -255.996)" fill="#5ddbfc"/>
          </g>
        </g>
        <g id="Group_50233" data-name="Group 50233" transform="translate(12.51 6.675)">
          <g id="Group_50232" data-name="Group 50232">
            <path id="Path_23758" data-name="Path 23758" d="M325.678,260.252l-4.993-4.161a.417.417,0,0,0-.533.64l4.993,4.161a.417.417,0,0,0,.533-.64Z" transform="translate(-320.001 -255.995)" fill="#5ddbfc"/>
          </g>
        </g>
      </g>
    </g>
  </g>
</svg>
