<svg xmlns="http://www.w3.org/2000/svg" width="30" height="30" viewBox="0 0 30 30">
  <g id="Group_698" data-name="Group 698" transform="translate(0)">
    <path id="Path_328" data-name="Path 328" d="M-1668.041,460.743h9.326a3.028,3.028,0,0,0,2.891,2.147h3.807a3.028,3.028,0,0,0,2.892-2.147h9.326a.88.88,0,0,0,.879-.88.88.88,0,0,0-.879-.88h-.531v-3.071a.88.88,0,0,0-1.082-.857,13.353,13.353,0,0,1-3.537.485c-2.049-.027-2.925-.437-5.361-.626a4.159,4.159,0,0,0-3.644,1.633,4.16,4.16,0,0,0-3.644-1.633c-2.431.188-3.316.6-5.362.626a13.363,13.363,0,0,1-3.537-.485.88.88,0,0,0-1.082.857v3.071h-.462a.88.88,0,0,0-.879.88A.88.88,0,0,0-1668.041,460.743Zm2.22-3.733a13.128,13.128,0,0,0,2.885.29c2.218-.029,3.14-.45,5.474-.631a2.588,2.588,0,0,1,2.656,2.031h0a.879.879,0,0,0,1.7,0h0a2.588,2.588,0,0,1,2.656-2.031c2.333.18,3.255.6,5.473.631a13.125,13.125,0,0,0,2.885-.29v1.972h-7.785a.88.88,0,0,0-.879.88,1.267,1.267,0,0,1-1.264,1.267h-3.807a1.267,1.267,0,0,1-1.264-1.267.88.88,0,0,0-.879-.88h-7.854Z" transform="translate(1668.92 -432.89)" fill="#3b2a65"/>
    <path id="Path_329" data-name="Path 329" d="M-1521.208,114.515h1.813a2.523,2.523,0,0,0,2.557-2.455l.014-1.847a9.784,9.784,0,0,1,1.881-4.38,6.636,6.636,0,0,0,1.345-4.026,6.692,6.692,0,0,0-6.791-6.7,6.711,6.711,0,0,0-6.6,6.595,6.633,6.633,0,0,0,1.358,4.145,9.627,9.627,0,0,1,1.866,4.35v1.84a2.518,2.518,0,0,0,2.557,2.472Zm2.609-2.467a.76.76,0,0,1-.8.707h-1.813a.758.758,0,0,1-.8-.711v-1.05h3.413Zm-6.63-10.314a4.967,4.967,0,0,1,4.864-4.86,4.932,4.932,0,0,1,5.005,4.934,4.888,4.888,0,0,1-.99,2.966,11.567,11.567,0,0,0-2.08,4.459h-.984v-5.105a.881.881,0,0,0-.881-.881.881.881,0,0,0-.881.881v5.105h-.982a11.384,11.384,0,0,0-2.071-4.444,4.887,4.887,0,0,1-1-3.055Z" transform="translate(1535.294 -94.166)" fill="#5ddbfc"/>
    <path id="Path_330" data-name="Path 330" d="M-1631.335,180.252a.881.881,0,0,0-.88-.88h-2.936a.88.88,0,0,0-.88.88.88.88,0,0,0,.88.88h2.936A.881.881,0,0,0-1631.335,180.252Z" transform="translate(1637.963 -173.492)" fill="#3b2a65"/>
    <path id="Path_331" data-name="Path 331" d="M-1275.925,255.994l2.529,1.49a.881.881,0,0,0,1.206-.312.88.88,0,0,0-.312-1.206l-2.529-1.49a.88.88,0,0,0-1.205.312A.881.881,0,0,0-1275.925,255.994Z" transform="translate(1299.348 -244.082)" fill="#3b2a65"/>
    <path id="Path_332" data-name="Path 332" d="M-1621.246,257.484l2.529-1.49a.881.881,0,0,0,.312-1.206.881.881,0,0,0-1.206-.312l-2.529,1.49a.88.88,0,0,0-.312,1.206A.88.88,0,0,0-1621.246,257.484Z" transform="translate(1625.294 -244.082)" fill="#3b2a65"/>
    <path id="Path_333" data-name="Path 333" d="M-1275.031,82.129l2.529-1.49a.88.88,0,0,0,.312-1.206.881.881,0,0,0-1.206-.312l-2.529,1.49a.88.88,0,0,0-.312,1.206A.88.88,0,0,0-1275.031,82.129Z" transform="translate(1299.347 -79)" fill="#3b2a65"/>
    <path id="Path_334" data-name="Path 334" d="M-1618.717,80.612l-2.529-1.49a.88.88,0,0,0-1.205.312.88.88,0,0,0,.312,1.206l2.529,1.49a.88.88,0,0,0,1.206-.312A.881.881,0,0,0-1618.717,80.612Z" transform="translate(1625.294 -79)" fill="#3b2a65"/>
    <path id="Path_335" data-name="Path 335" d="M-1265.121,180.252a.88.88,0,0,0-.88-.88h-2.936a.881.881,0,0,0-.88.88.881.881,0,0,0,.88.88H-1266A.88.88,0,0,0-1265.121,180.252Z" transform="translate(1293.191 -173.492)" fill="#3b2a65"/>
  </g>
</svg>
