<svg xmlns="http://www.w3.org/2000/svg" width="50" height="49.964" viewBox="0 0 50 49.964">
  <g id="Group_50160" data-name="Group 50160" transform="translate(144.887 -450.965)">
    <g id="Group_336" data-name="Group 336" transform="translate(-144.887 450.965)">
      <g id="Group_335" data-name="Group 335">
        <path id="Path_674" data-name="Path 674" d="M-95.178,492.531A.984.984,0,0,0-96.452,492a.983.983,0,0,0-.526,1.273.982.982,0,0,0,1.272.527A.983.983,0,0,0-95.178,492.531Z" transform="translate(136.772 -457.915)" fill="#3b2a65"/>
        <path id="Path_675" data-name="Path 675" d="M-95.265,474.145a.978.978,0,0,0-.842-.173l-8.212,2.112h-12.425a.977.977,0,0,0-.976.977v1.318h-.5c-1.7,0-2.421-1.041-3.258-2.248-.2-.285-1.369-1.8-1.369-1.8a6.6,6.6,0,0,0-5.2-2.509h-5.534l-.792-5.133h6.127l-.3,2.215a.988.988,0,0,0,.967,1.108h11.916a.986.986,0,0,0,.779-1.566l-3.946-5.214,2.286-5.535a.977.977,0,0,0-.091-.916.977.977,0,0,0-.811-.433h-7.415l.3-2.215a.988.988,0,0,0-.967-1.108h-11a3.074,3.074,0,0,0-2.919-2.065,3.122,3.122,0,0,0-3.056,3.575l3.393,21.5h-1.9a3.323,3.323,0,0,0-3.319,3.32,3.3,3.3,0,0,0,.727,2.07,3.316,3.316,0,0,0-1.277,2.615,3.323,3.323,0,0,0,1.969,3.031,3.3,3.3,0,0,0-.442,1.653,3.319,3.319,0,0,0,1.492,2.77,3.307,3.307,0,0,0-.61,1.915,3.323,3.323,0,0,0,3.32,3.32h3.489l.2,1.575a2.993,2.993,0,0,0,2.967,2.622,3.02,3.02,0,0,0,2.964-3.384l-.109-.813h2.281a6.64,6.64,0,0,0,4.321-1.6l.766-.656a4.687,4.687,0,0,1,3.05-1.129h1.51v1.5a.977.977,0,0,0,.976.976h12.549l8.34-.078a.977.977,0,0,0,.967-.976V474.918a.978.978,0,0,0-.378-.772Zm-23.644-15.839-1.941,4.7a.975.975,0,0,0,.124.961l3.1,4.1h-8.834l1.333-9.759Zm-8.039-1.122,0,.013-1.03,7.542h-6.694l-1.505-9.758h9.532Zm-13.63-2.949a1.151,1.151,0,0,1,1.127-1.318c.752,0,1.066.589,1.164,1.236l3.379,21.883h-2.229Zm9.1,43.567a1.048,1.048,0,0,1-1.029,1.173,1.038,1.038,0,0,1-1.029-.911l-.168-1.333h2.082Zm12.245-6.408a6.645,6.645,0,0,0-4.322,1.6l-.766.656a4.687,4.687,0,0,1-3.05,1.129h-11.791a1.368,1.368,0,0,1-1.366-1.367,1.367,1.367,0,0,1,1.366-1.366.977.977,0,0,0,.976-.976.977.977,0,0,0-.977-.976h-.882a1.367,1.367,0,0,1-1.366-1.366,1.368,1.368,0,0,1,1.366-1.367.976.976,0,0,0,.976-.977.976.976,0,0,0-.976-.976h-1.526a1.367,1.367,0,0,1-1.366-1.366,1.367,1.367,0,0,1,1.366-1.366h.549a.976.976,0,0,0,.976-.976.977.977,0,0,0-.976-.977,1.367,1.367,0,0,1-1.366-1.366,1.367,1.367,0,0,1,1.366-1.366h11.729a.976.976,0,0,0,.976-.976.976.976,0,0,0-.976-.976h-3.643l-.348-2.258h5.233a4.662,4.662,0,0,1,3.67,1.772s1.105,1.423,1.293,1.695c.9,1.3,2.143,3.086,4.864,3.086h.5v11.061ZM-96.84,493.8l-6.378.06v-3.613a.976.976,0,0,0-.976-.976.976.976,0,0,0-.976.976v3.623h-10.6V478.038h10.6v3.618a.977.977,0,0,0,.976.976.976.976,0,0,0,.976-.976v-3.839l6.378-1.641Z" transform="translate(144.887 -450.965)" fill="#3b2a65"/>
      </g>
    </g>
  </g>
</svg>
