<svg xmlns="http://www.w3.org/2000/svg" width="52.918" height="50" viewBox="0 0 52.918 50">
  <g id="Group_50170" data-name="Group 50170" transform="translate(200 -557.966)">
    <g id="Group_345" data-name="Group 345" transform="translate(-200 557.966)">
      <g id="Group_344" data-name="Group 344">
        <path id="Path_683" data-name="Path 683" d="M-148.115,605.9H-152.4a11.125,11.125,0,0,0-2.9-6.852,10.376,10.376,0,0,0-4.378-2.779v-7.921h.2a6.4,6.4,0,0,0,4.557-1.888,6.4,6.4,0,0,0,1.888-4.558v-1.23a1.033,1.033,0,0,0-1.033-1.033h-1.23a6.4,6.4,0,0,0-4.379,1.717v-1.288a1.034,1.034,0,0,0-1.033-1.033,1.033,1.033,0,0,0-1.033,1.033v5.869a6.4,6.4,0,0,0-4.379-1.717h-.008l-1.222,0a1.033,1.033,0,0,0-1.033,1.032l0,1.223a6.4,6.4,0,0,0,1.888,4.565,6.4,6.4,0,0,0,4.557,1.888h.2v2.926q-.24-.02-.48-.026a9.739,9.739,0,0,0-3.193.442,1.689,1.689,0,0,1-1.845-.552,7.807,7.807,0,0,0-5.189-2.991V578.82h1.408a11.689,11.689,0,0,0,8.32-3.447,11.682,11.682,0,0,0,3.447-8.334l0-2.425a1.034,1.034,0,0,0-1.033-1.033l-2.425,0h-.014a11.687,11.687,0,0,0-8.32,3.447,11.87,11.87,0,0,0-1.379,1.655V559a1.034,1.034,0,0,0-1.034-1.033A1.033,1.033,0,0,0-174.511,559v3.329a9.367,9.367,0,0,0-.628-.7,9.146,9.146,0,0,0-6.51-2.7h-1.859a1.033,1.033,0,0,0-1.033,1.033v1.859a9.147,9.147,0,0,0,2.7,6.509,9.144,9.144,0,0,0,6.509,2.7h.825v21.695a7.8,7.8,0,0,0-5.2,3.011,1.7,1.7,0,0,1-1.876.559,9.647,9.647,0,0,0-3.509-.459l-.187.012v-2.924h.2a6.4,6.4,0,0,0,4.558-1.888,6.4,6.4,0,0,0,1.888-4.565v-1.223a1.035,1.035,0,0,0-1.033-1.033h-1.231a6.4,6.4,0,0,0-4.378,1.717V581.9h.2a6.4,6.4,0,0,0,4.557-1.888,6.4,6.4,0,0,0,1.888-4.565v-1.223a1.033,1.033,0,0,0-1.033-1.032l-1.223,0h-.007a6.4,6.4,0,0,0-4.379,1.717v-2.9a1.034,1.034,0,0,0-1.033-1.034,1.034,1.034,0,0,0-1.033,1.034v9.345a6.4,6.4,0,0,0-4.379-1.717h-1.231A1.033,1.033,0,0,0-194,580.67v1.23a6.4,6.4,0,0,0,1.888,4.558,6.4,6.4,0,0,0,4.557,1.888h.2v7.883a9.788,9.788,0,0,0-4.784,3.267,11.968,11.968,0,0,0-2.542,6.4h-4.287A1.034,1.034,0,0,0-200,606.932a1.034,1.034,0,0,0,1.033,1.034h21.089a1.034,1.034,0,0,0,1.033-1.034,1.034,1.034,0,0,0-1.033-1.033H-192.6c.431-4.013,3.381-7.776,7.612-8a7.6,7.6,0,0,1,2.762.36A3.772,3.772,0,0,0-178.074,597a5.755,5.755,0,0,1,4.6-2.269,5.759,5.759,0,0,1,4.586,2.255,3.764,3.764,0,0,0,4.1,1.26,7.627,7.627,0,0,1,2.514-.348,7.959,7.959,0,0,1,5.491,2.584c.014.015.025.026.04.04a7.237,7.237,0,0,1,1.17,1.657,9.767,9.767,0,0,1,1.105,3.722h-14.313a1.034,1.034,0,0,0-1.033,1.033,1.033,1.033,0,0,0,1.033,1.033h20.669a1.033,1.033,0,0,0,1.033-1.033,1.033,1.033,0,0,0-1.033-1.033Zm-10.275-22.913a4.351,4.351,0,0,1,3.1-1.282h.2v.2a4.351,4.351,0,0,1-1.282,3.1,4.352,4.352,0,0,1-3.1,1.282h-.2v-.192a4.351,4.351,0,0,1,1.282-3.1Zm-3.547,7.875a4.349,4.349,0,0,1-3.1-1.282,4.351,4.351,0,0,1-1.283-3.1v-.192h.2a4.346,4.346,0,0,1,3.1,1.283,4.349,4.349,0,0,1,1.282,3.1v.2Zm-18.972-4.576h.2v.192a4.351,4.351,0,0,1-1.282,3.1,4.352,4.352,0,0,1-3.1,1.282h-.2v-.2a4.352,4.352,0,0,1,1.282-3.1,4.351,4.351,0,0,1,3.1-1.282Zm-3.1-9.741a4.346,4.346,0,0,1,3.1-1.283h.2v.192a4.35,4.35,0,0,1-1.282,3.1,4.351,4.351,0,0,1-3.1,1.282h-.2v-.2a4.349,4.349,0,0,1,1.282-3.1Zm-3.35,9.736h-.192a4.356,4.356,0,0,1-3.1-1.282,4.351,4.351,0,0,1-1.282-3.1v-.2h.2a4.349,4.349,0,0,1,3.1,1.282,4.351,4.351,0,0,1,1.283,3.1Zm17.751-17.792a9.634,9.634,0,0,1,6.858-2.841h.012l1.395,0v1.395a9.631,9.631,0,0,1-2.841,6.87,9.633,9.633,0,0,1-6.8,2.84l4.17-4.17a1.034,1.034,0,0,0,0-1.461,1.033,1.033,0,0,0-1.462,0l-4.17,4.17a9.636,9.636,0,0,1,2.841-6.8Zm-12.872-6.658V561h.825a7.092,7.092,0,0,1,5.048,2.091,7.086,7.086,0,0,1,2.06,4.38l-2.359-2.358a1.032,1.032,0,0,0-1.461,0,1.034,1.034,0,0,0,0,1.461l2.358,2.358a7.08,7.08,0,0,1-4.379-2.059,7.092,7.092,0,0,1-2.091-5.048Z" transform="translate(200 -557.966)" fill="#3b2a65"/>
        <path id="Path_684" data-name="Path 684" d="M-168.755,613.152a1.045,1.045,0,0,0-1.353-.56,1.044,1.044,0,0,0-.56,1.353,1.045,1.045,0,0,0,1.353.56A1.046,1.046,0,0,0-168.755,613.152Z" transform="translate(196.451 -564.584)" fill="#3b2a65"/>
      </g>
    </g>
  </g>
</svg>
