<svg xmlns="http://www.w3.org/2000/svg" width="29.081" height="50.053" viewBox="0 0 29.081 50.053">
  <g id="Group_50164" data-name="Group 50164" transform="translate(-1259 -523.781)">
    <g id="Group_340" data-name="Group 340" transform="translate(1259 523.781)">
      <g id="Group_339" data-name="Group 339" transform="translate(0)">
        <g id="Group_338" data-name="Group 338">
          <path id="Path_676" data-name="Path 676" d="M-203.277,424.764H-230a.978.978,0,0,0-.978.977v8.315a.976.976,0,0,0,.526.867l11.309,5.9a3.816,3.816,0,0,0-1.519,3.047,3.8,3.8,0,0,0,.7,2.2,14.567,14.567,0,0,0-11.421,14.034,14.445,14.445,0,0,0,4.138,10.331,14.447,14.447,0,0,0,10.232,4.378l.175,0a14.415,14.415,0,0,0,8.492-2.741,14.476,14.476,0,0,0,5.285-7.156.978.978,0,0,0-.614-1.238.978.978,0,0,0-1.238.614,12.552,12.552,0,0,1-11.927,8.565h-.149a12.5,12.5,0,0,1-8.856-3.789,12.5,12.5,0,0,1-3.582-8.942,12.6,12.6,0,0,1,12.582-12.439h.149a12.571,12.571,0,0,1,11.842,8.742.977.977,0,0,0,1.229.633.978.978,0,0,0,.633-1.229,14.519,14.519,0,0,0-10.73-9.765,3.8,3.8,0,0,0,.7-2.2,3.814,3.814,0,0,0-1.359-2.919l11.553-6.026a.977.977,0,0,0,.525-.867v-8.315a.977.977,0,0,0-.977-.977Zm-11.666,14.275-1.695.883-1.695-.884v-12.32h3.39Zm-14.078-12.321h3.389v8.513l-3.389-1.768Zm5.344,0h3.39v11.3l-3.39-1.768Zm6.836,19.016a1.868,1.868,0,0,1-1.865-1.866A1.868,1.868,0,0,1-216.84,442a1.868,1.868,0,0,1,1.865,1.866,1.867,1.867,0,0,1-1.865,1.866Zm3.853-19.016h3.39v9.533l-3.39,1.768Zm8.734,6.745-3.39,1.768v-8.513h3.39Z" transform="translate(231.381 -424.764)" fill="#3b2a65"/>
          <path id="Path_677" data-name="Path 677" d="M-206.365,462.568a1.814,1.814,0,0,0-1.473-1.242l-4.391-.638-1.963-3.979a1.811,1.811,0,0,0-1.636-1.017h0a1.813,1.813,0,0,0-1.637,1.017l-1.963,3.979-4.39.638a1.814,1.814,0,0,0-1.473,1.242,1.814,1.814,0,0,0,.461,1.87l3.178,3.1-.75,4.373a1.813,1.813,0,0,0,.726,1.785,1.82,1.82,0,0,0,1.071.351,1.827,1.827,0,0,0,.85-.212l3.927-2.065,3.926,2.065a1.812,1.812,0,0,0,1.922-.139,1.815,1.815,0,0,0,.726-1.785l-.751-4.373,3.177-3.1a1.814,1.814,0,0,0,.462-1.871Zm-5.053,3.615a1.822,1.822,0,0,0-.524,1.615l.716,4.18L-214.979,470a1.827,1.827,0,0,0-.849-.21,1.827,1.827,0,0,0-.849.21l-3.754,1.973.717-4.18a1.824,1.824,0,0,0-.525-1.615l-3.036-2.96,4.2-.609a1.825,1.825,0,0,0,1.374-1l1.877-3.8,1.876,3.8a1.825,1.825,0,0,0,1.374,1l4.2.609Z" transform="translate(230.368 -429.986)" fill="#3b2a65"/>
          <path id="Path_678" data-name="Path 678" d="M-196.865,466.911a.987.987,0,0,0-.974-.6.987.987,0,0,0-.882.761.985.985,0,0,0,1.46,1.05.987.987,0,0,0,.4-1.21Z" transform="translate(225.872 -431.778)" fill="#3b2a65"/>
        </g>
      </g>
    </g>
  </g>
</svg>
