<svg xmlns="http://www.w3.org/2000/svg" width="50.45" height="50.117" viewBox="0 0 50.45 50.117">
  <g id="Group_50167" data-name="Group 50167" transform="translate(132.313 -344.141)">
    <g id="Group_342" data-name="Group 342" transform="translate(-132.313 344.141)">
      <g id="Group_341" data-name="Group 341">
        <path id="Path_679" data-name="Path 679" d="M-82.84,371.976h-8.172a1.906,1.906,0,0,1-1.283-.5l-2.568-2.327a4.677,4.677,0,0,0-3.146-1.213h-18.1a4.676,4.676,0,0,0-3.146,1.213l-2.568,2.327a1.909,1.909,0,0,1-1.283.5h-8.172a.985.985,0,0,0-.985.985V375.7a.985.985,0,0,0,.985.985.985.985,0,0,0,.985-.985v-1.752h7.187a3.878,3.878,0,0,0,2.607-1.006l2.568-2.326a2.708,2.708,0,0,1,1.822-.7h5.223a5.476,5.476,0,0,1,3.789,1.541c.018.018.038.034.056.053l5.908,5.909a4.336,4.336,0,0,1-5.284-.617,6.823,6.823,0,0,0-4.18-1.981q-.339-.033-.684-.033h-2.855a.985.985,0,0,0-.986.985.985.985,0,0,0,.986.985h.224l-6.788,6.788a3.679,3.679,0,0,0-1.071,2.428h-8.523v-1.613a.985.985,0,0,0-.985-.985.985.985,0,0,0-.985.985v2.6a.985.985,0,0,0,.985.985h9.986a3.044,3.044,0,0,0,.662.844,3.9,3.9,0,0,0,2.647,1.009,3.56,3.56,0,0,0,1.14,2.78,3.6,3.6,0,0,0,4.14.6,3.641,3.641,0,0,0,1.046,1.8,3.7,3.7,0,0,0,4.4.464,3.436,3.436,0,0,0,1,1.672,3.691,3.691,0,0,0,5.132-.06l8.552-8.55a1.921,1.921,0,0,1,1.35-.56h8.383a.985.985,0,0,0,.985-.985V372.961a.985.985,0,0,0-.985-.985Zm-.985,13.994h-7.4a3.9,3.9,0,0,0-2.745,1.138l-8.523,8.522a1.646,1.646,0,0,1-2.455.009,1.7,1.7,0,0,1,.025-2.368h0l3.085-3.085a.986.986,0,0,0,0-1.393.985.985,0,0,0-1.394,0l-4.677,4.677a1.733,1.733,0,0,1-2.4.072,1.7,1.7,0,0,1-.034-2.427l3.89-3.89a.986.986,0,0,0,0-1.393.985.985,0,0,0-1.394,0l-5.25,5.25a1.693,1.693,0,0,1-2.458,0,1.709,1.709,0,0,1,.031-2.362l4.625-4.626a.985.985,0,0,0,0-1.394.985.985,0,0,0-1.393,0l-4.586,4.586a1.694,1.694,0,0,1-2.464.009,1.725,1.725,0,0,1,.03-2.362l8.179-8.179a4.92,4.92,0,0,1,1.144.17,4.883,4.883,0,0,1,2.172,1.265,6.318,6.318,0,0,0,8.849,0,.988.988,0,0,0,.216-1.068c0-.011-.01-.022-.015-.034s-.016-.036-.025-.054a.981.981,0,0,0-.176-.239l-6.686-6.686c-.068-.068-.137-.135-.209-.2h7.849a2.71,2.71,0,0,1,1.822.7l2.568,2.327a3.874,3.874,0,0,0,2.607,1.005h7.187Z" transform="translate(132.305 -348.002)" fill="#3b2a65"/>
        <path id="Path_680" data-name="Path 680" d="M-103.883,361.38a8.629,8.629,0,0,0,8.619-8.62,8.629,8.629,0,0,0-8.619-8.619,8.629,8.629,0,0,0-8.619,8.619,8.629,8.629,0,0,0,8.619,8.62Zm0-15.268a6.656,6.656,0,0,1,6.649,6.648,6.656,6.656,0,0,1-6.649,6.649,6.656,6.656,0,0,1-6.648-6.649,6.656,6.656,0,0,1,6.648-6.648Z" transform="translate(129.099 -344.141)" fill="#3b2a65"/>
        <path id="Path_681" data-name="Path 681" d="M-104.8,357.667a1,1,0,0,0,1.394,0l4.544-4.544a.987.987,0,0,0,0-1.394.987.987,0,0,0-1.394,0l-3.847,3.847-1.57-1.569a.984.984,0,0,0-1.393,0,.984.984,0,0,0,0,1.393Z" transform="translate(128.264 -345.325)" fill="#3b2a65"/>
        <path id="Path_682" data-name="Path 682" d="M-132.151,382.793a.994.994,0,0,0,1.366.272,1,1,0,0,0,.272-1.367.994.994,0,0,0-1.366-.271A1,1,0,0,0-132.151,382.793Z" transform="translate(132.313 -350.163)" fill="#3b2a65"/>
      </g>
    </g>
  </g>
</svg>
