<svg xmlns="http://www.w3.org/2000/svg" width="32.134" height="30" viewBox="0 0 32.134 30">
  <g id="news_icon" data-name="news icon" transform="translate(0)">
    <path id="Path_320" data-name="Path 320" d="M-957.617,175.527h-7.155v-5.586a.941.941,0,0,0-.941-.941h-22.155a.941.941,0,0,0-.941.941v24.351A4.712,4.712,0,0,0-984.1,199h22.72a4.712,4.712,0,0,0,4.707-4.707V176.469A.941.941,0,0,0-957.617,175.527Zm-26.485,21.59a2.827,2.827,0,0,1-2.824-2.824v-23.41h20.272c0,24.883-.012,23.5.022,23.854a4.692,4.692,0,0,0,.922,2.38Zm25.544-2.824a2.827,2.827,0,0,1-2.824,2.824h-.565a2.828,2.828,0,0,1-2.824-2.824V177.41h6.213Z" transform="translate(988.809 -169)" fill="#3b2a65"/>
    <path id="Path_321" data-name="Path 321" d="M-908.839,241h-14.03a.94.94,0,0,0-.94.94.94.94,0,0,0,.94.94h14.03a.94.94,0,0,0,.94-.94A.94.94,0,0,0-908.839,241Z" transform="translate(927.88 -236.481)" fill="#5ddbfc"/>
    <path id="Path_322" data-name="Path 322" d="M-908.839,305h-14.03a.94.94,0,0,0-.94.94.94.94,0,0,0,.94.94h14.03a.94.94,0,0,0,.94-.94A.94.94,0,0,0-908.839,305Z" transform="translate(927.88 -296.463)" fill="#5ddbfc"/>
    <path id="Path_323" data-name="Path 323" d="M-908.839,545h-14.03a.94.94,0,0,0-.94.94.94.94,0,0,0,.94.939h14.03a.94.94,0,0,0,.94-.939A.94.94,0,0,0-908.839,545Z" transform="translate(927.88 -521.398)" fill="#3b2a65"/>
    <path id="Path_324" data-name="Path 324" d="M-803.854,369h-7.015a.94.94,0,0,0-.939.94v7.015a.94.94,0,0,0,.939.94h7.015a.94.94,0,0,0,.94-.94V369.94A.94.94,0,0,0-803.854,369Zm-.939,7.015h-5.136v-5.136h5.136Z" transform="translate(822.926 -356.437)" fill="#5ddbfc"/>
    <path id="Path_325" data-name="Path 325" d="M-922.87,394.879h3.006a.94.94,0,0,0,.94-.94.94.94,0,0,0-.94-.94h-3.006a.94.94,0,0,0-.94.94A.94.94,0,0,0-922.87,394.879Z" transform="translate(927.88 -378.94)" fill="#3b2a65"/>
    <path id="Path_326" data-name="Path 326" d="M-922.87,458.879h3.006a.94.94,0,0,0,.94-.94.94.94,0,0,0-.94-.94h-3.006a.94.94,0,0,0-.94.94A.94.94,0,0,0-922.87,458.879Z" transform="translate(927.88 -438.922)" fill="#3b2a65"/>
  </g>
</svg>
