<svg xmlns="http://www.w3.org/2000/svg" width="19.973" height="20.002" viewBox="0 0 19.973 20.002">
  <g id="phone-call" transform="translate(-0.344 0)">
    <g id="Group_50222" data-name="Group 50222" transform="translate(0.344 0)">
      <path id="Path_23751" data-name="Path 23751" d="M16.138,38.64a1.967,1.967,0,0,0-1.427-.654,2.034,2.034,0,0,0-1.444.65l-1.334,1.33c-.11-.059-.22-.114-.325-.169-.152-.076-.3-.148-.418-.224a14.5,14.5,0,0,1-3.474-3.166,8.554,8.554,0,0,1-1.14-1.8c.346-.317.667-.646.979-.963.118-.118.236-.241.355-.359a1.937,1.937,0,0,0,0-2.921L6.758,29.213c-.131-.131-.266-.266-.393-.4-.253-.262-.519-.532-.794-.785a2,2,0,0,0-1.414-.621,2.068,2.068,0,0,0-1.435.621l-.008.008L1.278,29.483a3.089,3.089,0,0,0-.916,1.963A7.4,7.4,0,0,0,.9,34.578a18.177,18.177,0,0,0,3.229,5.387,19.866,19.866,0,0,0,6.615,5.18,10.307,10.307,0,0,0,3.715,1.1c.089,0,.182.008.266.008A3.181,3.181,0,0,0,17.164,45.2c0-.008.013-.013.017-.021a9.6,9.6,0,0,1,.739-.764c.182-.173.367-.355.549-.545a2.106,2.106,0,0,0,.637-1.461,2.029,2.029,0,0,0-.65-1.448Zm1.511,4.445s0,0,0,0c-.165.177-.334.338-.515.515a11.1,11.1,0,0,0-.815.844,2.035,2.035,0,0,1-1.587.671c-.063,0-.131,0-.194,0a9.156,9.156,0,0,1-3.293-.988,18.752,18.752,0,0,1-6.231-4.88,17.139,17.139,0,0,1-3.04-5.062A6.028,6.028,0,0,1,1.5,31.539a1.938,1.938,0,0,1,.583-1.254l1.44-1.44a.96.96,0,0,1,.642-.3.9.9,0,0,1,.616.3l.013.013c.258.241.5.49.76.756.131.135.266.27.4.409l1.152,1.152a.806.806,0,0,1,0,1.309c-.122.122-.241.245-.363.363-.355.363-.692.7-1.06,1.03-.008.008-.017.013-.021.021a.861.861,0,0,0-.22.958l.013.038a9.252,9.252,0,0,0,1.364,2.225l0,0a15.5,15.5,0,0,0,3.749,3.411,5.764,5.764,0,0,0,.519.283c.152.076.3.148.418.224.017.008.034.021.051.03a.915.915,0,0,0,.418.106.9.9,0,0,0,.642-.291l1.444-1.444a.955.955,0,0,1,.637-.317.86.86,0,0,1,.608.308l.008.008,2.326,2.326A.835.835,0,0,1,17.649,43.085Z" transform="translate(-0.344 -26.249)" fill="#3b2a65"/>
      <path id="Path_23752" data-name="Path 23752" d="M245.413,87.056a5.433,5.433,0,0,1,4.424,4.424.566.566,0,0,0,.561.473.755.755,0,0,0,.1-.008.57.57,0,0,0,.469-.659,6.57,6.57,0,0,0-5.353-5.353.573.573,0,0,0-.659.464A.564.564,0,0,0,245.413,87.056Z" transform="translate(-234.618 -82.298)" fill="#5ddbfc"/>
      <path id="Path_23753" data-name="Path 23753" d="M258.252,8.823A10.818,10.818,0,0,0,249.437.009a.569.569,0,1,0-.186,1.123,9.662,9.662,0,0,1,7.877,7.877.566.566,0,0,0,.561.473.753.753,0,0,0,.1-.008A.559.559,0,0,0,258.252,8.823Z" transform="translate(-238.288 0)" fill="#5ddbfc"/>
    </g>
  </g>
</svg>
