<svg xmlns="http://www.w3.org/2000/svg" width="14.063" height="20" viewBox="0 0 14.063 20">
  <g id="placeholder" transform="translate(-76)">
    <g id="Group_50219" data-name="Group 50219" transform="translate(76)">
      <g id="Group_50218" data-name="Group 50218">
        <path id="Path_23749" data-name="Path 23749" d="M83.031,0A7.033,7.033,0,0,0,77.05,10.729l5.581,8.994a.586.586,0,0,0,.5.277h0a.586.586,0,0,0,.5-.285l5.439-9.082A7.033,7.033,0,0,0,83.031,0Zm5.034,10.032L83.12,18.289l-5.074-8.177a5.863,5.863,0,1,1,10.02-.079Z" transform="translate(-76 0)" fill="#3b2a65"/>
      </g>
    </g>
    <g id="Group_50221" data-name="Group 50221" transform="translate(79.508 3.511)">
      <g id="Group_50220" data-name="Group 50220">
        <path id="Path_23750" data-name="Path 23750" d="M169.524,90a3.524,3.524,0,1,0,3.524,3.524A3.528,3.528,0,0,0,169.524,90Zm0,5.88a2.357,2.357,0,1,1,2.353-2.357A2.359,2.359,0,0,1,169.524,95.88Z" transform="translate(-166 -90)" fill="#5ddbfc"/>
      </g>
    </g>
  </g>
</svg>
