<svg id="search" xmlns="http://www.w3.org/2000/svg" width="100" height="74.527" viewBox="0 0 100 74.527">
  <path id="Path_644" data-name="Path 644" d="M201.005,124.06,178.729,101.69a26.1,26.1,0,0,0-5.369-28.87,25.781,25.781,0,0,0-36.587,0,26.083,26.083,0,0,0,0,36.737,25.8,25.8,0,0,0,29.139,5.229l22.163,22.255a9.111,9.111,0,0,0,12.931,0A9.217,9.217,0,0,0,201.005,124.06Zm-60.1-18.645a20.2,20.2,0,0,1,0-28.451,19.964,19.964,0,0,1,28.332,0,20.2,20.2,0,0,1,0,28.451A19.964,19.964,0,0,1,140.9,105.415ZM196.878,132.9a3.294,3.294,0,0,1-4.675,0l-21.174-21.263a26.118,26.118,0,0,0,4.639-4.733l21.211,21.3A3.334,3.334,0,0,1,196.878,132.9Z" transform="translate(-103.678 -65.206)" fill="#5ddbfc"/>
  <path id="Path_645" data-name="Path 645" d="M2.964,220.875H15.6a2.964,2.964,0,1,0,0-5.928H2.964a2.964,2.964,0,1,0,0,5.928Z" transform="translate(0 -185.729)" fill="#3b2a65"/>
  <path id="Path_646" data-name="Path 646" d="M2.964,284.874H20.341a2.964,2.964,0,1,0,0-5.927H2.964a2.964,2.964,0,1,0,0,5.927Z" transform="translate(0 -237.24)" fill="#3b2a65"/>
  <path id="Path_647" data-name="Path 647" d="M2.964,348.875H32.979a2.964,2.964,0,1,0,0-5.928H2.964a2.964,2.964,0,1,0,0,5.928Z" transform="translate(0 -288.752)" fill="#3b2a65"/>
  <path id="Path_648" data-name="Path 648" d="M67.734,406.947H2.964a2.964,2.964,0,1,0,0,5.927H67.734a2.964,2.964,0,1,0,0-5.927Z" transform="translate(0 -340.288)" fill="#3b2a65"/>
</svg>
