<svg id="star" xmlns="http://www.w3.org/2000/svg" width="30.373" height="30" viewBox="0 0 30.373 30">
  <path id="Path_672" data-name="Path 672" d="M29.458,2.121H23.5V.915a.915.915,0,0,0-1.829,0V2.121H8.7V.915a.915.915,0,0,0-1.829,0V2.121H.914A.914.914,0,0,0,0,3.035v26.05A.915.915,0,0,0,.914,30H29.457a.915.915,0,0,0,.915-.915V3.035a.914.914,0,0,0-.915-.915Zm-.915,26.05H1.828V10.628H28.543Zm0-19.372H1.828V3.95H6.872V5.155a.915.915,0,1,0,1.829,0V3.95H21.67V5.155a.915.915,0,0,0,1.829,0V3.95h5.043Zm0,0" transform="translate(0.001 0)" fill="#3b2a65"/>
  <path id="Path_673" data-name="Path 673" d="M134.62,206.276l-.271,3.926a.916.916,0,0,0,1.227.924l3.68-1.339,3.68,1.339a.917.917,0,0,0,1.227-.924l-.271-3.926,2.527-3.018a.917.917,0,0,0-.431-1.464l-3.868-1.2-2.1-3.131a.916.916,0,0,0-1.521,0l-2.1,3.131-3.868,1.2a.917.917,0,0,0-.431,1.464Zm2.623-4.026a.913.913,0,0,0,.489-.364l1.524-2.267,1.524,2.267a.913.913,0,0,0,.489.364l2.861.887-1.881,2.246a.916.916,0,0,0-.212.652l.2,2.888-2.668-.971a.92.92,0,0,0-.627,0l-2.668.971.2-2.888a.916.916,0,0,0-.212-.652l-1.881-2.246Zm0,0" transform="translate(-124.069 -185.405)" fill="#5ddbfc"/>
</svg>
