<svg id="Group_700" data-name="Group 700" xmlns="http://www.w3.org/2000/svg" width="38.193" height="30" viewBox="0 0 38.193 30">
  <path id="Path_336" data-name="Path 336" d="M-818.739,762.605v-8.187a2.686,2.686,0,0,0-2.731-2.717h-16.371a2.684,2.684,0,0,0-2.728,2.717v8.187a2.693,2.693,0,0,0,2.728,2.728h1.369a1.364,1.364,0,0,1,1.359,1.369v2.166l3.13-3.133a1.364,1.364,0,0,1,.959-.4h9.554A2.7,2.7,0,0,0-818.739,762.605Z" transform="translate(843.3 -748.97)" fill="none"/>
  <path id="Path_337" data-name="Path 337" d="M-713.142,783.576h-4.089V786.3h4.089a2.7,2.7,0,0,1,2.728,2.731v8.187a2.693,2.693,0,0,1-2.728,2.728H-714.5a1.364,1.364,0,0,0-1.369,1.359v2.165l-3.12-3.122a1.364,1.364,0,0,0-.967-.4h-9.546a2.685,2.685,0,0,1-2.36-1.359h-.61l-1.593,1.593a5.459,5.459,0,0,0,4.564,2.494h8.981l5.057,5.054a1.364,1.364,0,0,0,1.929-.006,1.363,1.363,0,0,0,.4-.958v-4.089a5.474,5.474,0,0,0,5.456-5.456v-8.187A5.477,5.477,0,0,0-713.142,783.576Z" transform="translate(745.879 -778.128)" fill="#5ddbfc"/>
  <path id="Path_338" data-name="Path 338" d="M-850.77,738.765a5.47,5.47,0,0,0,5.448-5.459v-8.187a5.461,5.461,0,0,0-5.448-5.448h-16.371a5.47,5.47,0,0,0-5.459,5.448v8.187a5.479,5.479,0,0,0,5.459,5.459v4.1a1.364,1.364,0,0,0,1.375,1.353,1.363,1.363,0,0,0,.95-.4l5.054-5.054Zm-10.513-2.328-3.13,3.133V737.4a1.365,1.365,0,0,0-1.359-1.369h-1.369a2.693,2.693,0,0,1-2.728-2.728v-8.187a2.684,2.684,0,0,1,2.728-2.717h16.371a2.686,2.686,0,0,1,2.731,2.717v8.187a2.7,2.7,0,0,1-2.731,2.728h-9.554A1.364,1.364,0,0,0-861.283,736.436Z" transform="translate(872.6 -719.671)" fill="#3b2a65"/>
</svg>
